<?xml version="1.0" encoding="UTF-8"?>
<svg id="Calque_2" xmlns="http://www.w3.org/2000/svg" viewBox="0 0 459.52 153.36">
  <defs>
    <style>
      .cls-1 {
        fill: none;
        stroke: #ff00ed;
        stroke-width: 2px;
      }
    </style>
  </defs>
  <g id="Calque_1-2" data-name="Calque_1">
    <path class="cls-1" d="M56.24,76.42v38.03h-12.36v34.33H1V57.09c0-17.75,4.84-31.53,14.52-41.35C25.2,5.91,38.81,1,56.35,1s29.4,4.45,37.5,13.36c8.1,8.91,12.15,22.66,12.15,41.25v93.16h-42.88V58.46c0-5.63-.67-9.54-2.01-11.72-1.34-2.18-3.73-3.27-7.18-3.27-6.69,0-10.03,5-10.03,15v17.96h12.36Z"/>
    <path class="cls-1" d="M64.02,148.77V44.83c0-12.89,3.91-23.41,11.72-31.58,7.82-8.17,17.96-12.25,30.42-12.25,14.79,0,26.16,6.8,34.12,20.39,4.86-7.32,10.07-12.55,15.63-15.69,5.56-3.13,12.43-4.7,20.6-4.7,12.96,0,22.88,4.08,29.79,12.25,6.9,8.17,10.35,19.93,10.35,35.28v100.24h-42.88V54.97c0-4.65-.37-7.73-1.11-9.24-.74-1.51-2.24-2.27-4.49-2.27-4.23,0-6.34,3.59-6.34,10.77v94.54h-42.88V54.97c0-4.58-.39-7.64-1.16-9.19-.78-1.55-2.29-2.32-4.54-2.32-4.23,0-6.34,3.84-6.34,11.51v93.8h-42.88Z"/>
    <path class="cls-1" d="M249.97,1c20.42,0,37.94,7.43,52.55,22.29,14.61,14.86,21.92,32.64,21.92,53.34s-7.36,38.94-22.08,53.66c-14.72,14.72-32.6,22.08-53.66,22.08s-38.76-7.39-53.55-22.18c-14.79-14.79-22.18-32.64-22.18-53.55s7.45-39.01,22.34-53.66c14.89-14.65,33.11-21.97,54.66-21.97ZM248.7,43.46c-8.8,0-16.3,3.24-22.5,9.72-6.2,6.48-9.29,14.3-9.29,23.45s3.12,16.97,9.35,23.45c6.23,6.48,13.71,9.72,22.45,9.72s16.39-3.22,22.55-9.66c6.16-6.44,9.24-14.28,9.24-23.5s-3.08-17.06-9.24-23.5c-6.16-6.44-13.68-9.66-22.55-9.66Z"/>
    <path class="cls-1" d="M384.77,4.59v93.23c0,16.43-4.9,29.57-14.7,39.4-9.8,9.83-22.84,14.75-39.14,14.75s-28.64-4.77-37.24-14.33c-8.6-9.55-12.9-23.28-12.9-41.19V4.59h42.77v91.76c0,8.78,3.12,13.17,9.38,13.17s9.06-4.39,9.06-13.17V4.59h42.77Z"/>
    <path class="cls-1" d="M385.88,43.36v105.41h-42.88V4.59h55.03c16.76,0,29.75,4.16,38.98,12.46,10.28,9.3,15.42,21.09,15.42,35.38s-6.37,26.87-19.12,36.86l24.72,59.47h-45l-20.81-46.48v-37.07h3.38c9.01,0,13.52-3.87,13.52-11.62,0-6.83-5.21-10.25-15.63-10.25h-7.61Z"/>
  </g>
</svg>