<svg xmlns="http://www.w3.org/2000/svg" xmlns:xlink="http://www.w3.org/1999/xlink" version="1.1" id="Layer_1" x="0px" y="0px" width="100px" height="100px" viewBox="0 0 100 100" enable-background="new 0 0 100 100" xml:space="preserve">
<g>
	<path d="M69.43,54.255c-1.167,1.167-3.076,1.167-4.242,0L28.437,17.507c-1.167-1.167-1.167-3.076,0-4.242l2.134-2.135   c1.167-1.167,3.076-1.167,4.243,0l36.751,36.748c1.166,1.167,1.167,3.075,0,4.242L69.43,54.255z"/>
</g>
<g>
	<path d="M28.438,86.735c-1.167-1.167-1.167-3.076,0-4.242l36.748-36.75c1.167-1.167,3.076-1.167,4.242,0l2.135,2.135   c1.166,1.167,1.167,3.076,0,4.242L34.814,88.87c-1.167,1.166-3.076,1.167-4.242,0L28.438,86.735z"/>
</g>
</svg>